<svg width="356" height="66" viewBox="0 0 356 66" fill="none" xmlns="http://www.w3.org/2000/svg">
<path d="M28.4 19.88C33.52 19.88 37.6267 21.5867 40.72 25C43.8133 28.36 45.36 33 45.36 38.92V65H31.76V40.76C31.76 37.7733 30.9867 35.4533 29.44 33.8C27.8933 32.1467 25.8133 31.32 23.2 31.32C20.5867 31.32 18.5067 32.1467 16.96 33.8C15.4133 35.4533 14.64 37.7733 14.64 40.76V65H0.96V5.8H14.64V26.36C16.0267 24.3867 17.92 22.8133 20.32 21.64C22.72 20.4667 25.4133 19.88 28.4 19.88ZM61.7463 15.72C59.3463 15.72 57.3729 15.0267 55.8263 13.64C54.3329 12.2 53.5863 10.44 53.5863 8.36C53.5863 6.22667 54.3329 4.46666 55.8263 3.08C57.3729 1.64 59.3463 0.919995 61.7463 0.919995C64.0929 0.919995 66.0129 1.64 67.5063 3.08C69.0529 4.46666 69.8263 6.22667 69.8263 8.36C69.8263 10.44 69.0529 12.2 67.5063 13.64C66.0129 15.0267 64.0929 15.72 61.7463 15.72ZM68.5463 20.36V65H54.8663V20.36H68.5463ZM92.14 5.8V65H78.46V5.8H92.14ZM99.3338 42.6C99.3338 38.0133 100.187 33.9867 101.894 30.52C103.654 27.0533 106.027 24.3867 109.014 22.52C112 20.6533 115.334 19.72 119.014 19.72C121.947 19.72 124.614 20.3333 127.014 21.56C129.467 22.7867 131.387 24.44 132.774 26.52V5.8H146.454V65H132.774V58.6C131.494 60.7333 129.654 62.44 127.254 63.72C124.907 65 122.16 65.64 119.014 65.64C115.334 65.64 112 64.7067 109.014 62.84C106.027 60.92 103.654 58.2267 101.894 54.76C100.187 51.24 99.3338 47.1867 99.3338 42.6ZM132.774 42.68C132.774 39.2667 131.814 36.5733 129.894 34.6C128.027 32.6267 125.734 31.64 123.014 31.64C120.294 31.64 117.974 32.6267 116.054 34.6C114.187 36.52 113.254 39.1867 113.254 42.6C113.254 46.0133 114.187 48.7333 116.054 50.76C117.974 52.7333 120.294 53.72 123.014 53.72C125.734 53.72 128.027 52.7333 129.894 50.76C131.814 48.7867 132.774 46.0933 132.774 42.68ZM176.671 65.64C172.297 65.64 168.351 64.7067 164.831 62.84C161.364 60.9733 158.617 58.3067 156.591 54.84C154.617 51.3733 153.631 47.32 153.631 42.68C153.631 38.0933 154.644 34.0667 156.671 30.6C158.697 27.08 161.471 24.3867 164.991 22.52C168.511 20.6533 172.457 19.72 176.831 19.72C181.204 19.72 185.151 20.6533 188.671 22.52C192.191 24.3867 194.964 27.08 196.991 30.6C199.017 34.0667 200.031 38.0933 200.031 42.68C200.031 47.2667 198.991 51.32 196.911 54.84C194.884 58.3067 192.084 60.9733 188.511 62.84C184.991 64.7067 181.044 65.64 176.671 65.64ZM176.671 53.8C179.284 53.8 181.497 52.84 183.311 50.92C185.177 49 186.111 46.2533 186.111 42.68C186.111 39.1067 185.204 36.36 183.391 34.44C181.631 32.52 179.444 31.56 176.831 31.56C174.164 31.56 171.951 32.52 170.191 34.44C168.431 36.3067 167.551 39.0533 167.551 42.68C167.551 46.2533 168.404 49 170.111 50.92C171.871 52.84 174.057 53.8 176.671 53.8Z" fill="#6C5CE7"/>
<path d="M204.568 42.6C204.568 38.0133 205.421 33.9867 207.128 30.52C208.888 27.0533 211.261 24.3867 214.248 22.52C217.235 20.6533 220.568 19.72 224.248 19.72C227.181 19.72 229.848 20.3333 232.248 21.56C234.701 22.7867 236.621 24.44 238.008 26.52V5.8H251.688V65H238.008V58.6C236.728 60.7333 234.888 62.44 232.488 63.72C230.141 65 227.395 65.64 224.248 65.64C220.568 65.64 217.235 64.7067 214.248 62.84C211.261 60.92 208.888 58.2267 207.128 54.76C205.421 51.24 204.568 47.1867 204.568 42.6ZM238.008 42.68C238.008 39.2667 237.048 36.5733 235.128 34.6C233.261 32.6267 230.968 31.64 228.248 31.64C225.528 31.64 223.208 32.6267 221.288 34.6C219.421 36.52 218.488 39.1867 218.488 42.6C218.488 46.0133 219.421 48.7333 221.288 50.76C223.208 52.7333 225.528 53.72 228.248 53.72C230.968 53.72 233.261 52.7333 235.128 50.76C237.048 48.7867 238.008 46.0933 238.008 42.68ZM303.665 41.96C303.665 43.24 303.585 44.5733 303.425 45.96H272.465C272.678 48.7333 273.558 50.8667 275.105 52.36C276.705 53.8 278.652 54.52 280.945 54.52C284.358 54.52 286.732 53.08 288.065 50.2H302.625C301.878 53.1333 300.518 55.7733 298.545 58.12C296.625 60.4667 294.198 62.3067 291.265 63.64C288.332 64.9733 285.052 65.64 281.425 65.64C277.052 65.64 273.158 64.7067 269.745 62.84C266.332 60.9733 263.665 58.3067 261.745 54.84C259.825 51.3733 258.865 47.32 258.865 42.68C258.865 38.04 259.798 33.9867 261.665 30.52C263.585 27.0533 266.252 24.3867 269.665 22.52C273.078 20.6533 276.998 19.72 281.425 19.72C285.745 19.72 289.585 20.6267 292.945 22.44C296.305 24.2533 298.918 26.84 300.785 30.2C302.705 33.56 303.665 37.48 303.665 41.96ZM289.665 38.36C289.665 36.0133 288.865 34.1467 287.265 32.76C285.665 31.3733 283.665 30.68 281.265 30.68C278.972 30.68 277.025 31.3467 275.425 32.68C273.878 34.0133 272.918 35.9067 272.545 38.36H289.665ZM330.962 52.2L340.642 20.36H355.202L339.362 65H322.482L306.642 20.36H321.282L330.962 52.2Z" fill="#00B894"/>
</svg>
