<svg width="101" height="101" viewBox="0 0 101 101" fill="none" xmlns="http://www.w3.org/2000/svg">
<path d="M21.6748 22.9915C21.6748 19.1238 23.2112 15.4145 25.9461 12.6796C28.6811 9.94466 32.3904 8.4082 36.2581 8.4082H50.8415V37.5749H36.2581C32.3904 37.5749 28.6811 36.0384 25.9461 33.3035C23.2112 30.5686 21.6748 26.8593 21.6748 22.9915Z" stroke="#6C5CE7" stroke-width="8" stroke-linecap="round" stroke-linejoin="round"/>
<path d="M50.8415 8.4082H65.4248C67.3399 8.4082 69.2363 8.78541 71.0056 9.51829C72.7749 10.2512 74.3826 11.3254 75.7368 12.6796C77.091 14.0337 78.1652 15.6414 78.898 17.4107C79.6309 19.1801 80.0081 21.0764 80.0081 22.9915C80.0081 24.9066 79.6309 26.803 78.898 28.5723C78.1652 30.3417 77.091 31.9493 75.7368 33.3035C74.3826 34.6577 72.7749 35.7319 71.0056 36.4648C69.2363 37.1977 67.3399 37.5749 65.4248 37.5749H50.8415V8.4082Z" stroke="#6C5CE7" stroke-width="8" stroke-linecap="round" stroke-linejoin="round"/>
<path d="M50.8415 52.1582C50.8415 50.2431 51.2187 48.3467 51.9516 46.5774C52.6844 44.808 53.7586 43.2004 55.1128 41.8462C56.467 40.492 58.0747 39.4178 59.844 38.6849C61.6133 37.952 63.5097 37.5748 65.4248 37.5748C67.3399 37.5748 69.2363 37.952 71.0056 38.6849C72.7749 39.4178 74.3826 40.492 75.7368 41.8462C77.091 43.2004 78.1652 44.808 78.898 46.5774C79.6309 48.3467 80.0081 50.2431 80.0081 52.1582C80.0081 54.0733 79.6309 55.9696 78.898 57.739C78.1652 59.5083 77.091 61.116 75.7368 62.4701C74.3826 63.8243 72.7749 64.8985 71.0056 65.6314C69.2363 66.3643 67.3399 66.7415 65.4248 66.7415C63.5097 66.7415 61.6133 66.3643 59.844 65.6314C58.0747 64.8985 56.467 63.8243 55.1128 62.4701C53.7586 61.116 52.6844 59.5083 51.9516 57.739C51.2187 55.9696 50.8415 54.0733 50.8415 52.1582V52.1582Z" stroke="#6C5CE7" stroke-width="8" stroke-linecap="round" stroke-linejoin="round"/>
<path d="M21.6748 81.3248C21.6748 77.457 23.2112 73.7477 25.9461 71.0128C28.6811 68.2779 32.3904 66.7415 36.2581 66.7415H50.8415V81.3248C50.8415 85.1925 49.305 88.9019 46.5701 91.6368C43.8352 94.3717 40.1259 95.9081 36.2581 95.9081C32.3904 95.9081 28.6811 94.3717 25.9461 91.6368C23.2112 88.9019 21.6748 85.1925 21.6748 81.3248Z" stroke="#6C5CE7" stroke-width="8" stroke-linecap="round" stroke-linejoin="round"/>
<path d="M21.6748 52.1582C21.6748 48.2904 23.2112 44.5811 25.9461 41.8462C28.6811 39.1113 32.3904 37.5748 36.2581 37.5748H50.8415V66.7415H36.2581C32.3904 66.7415 28.6811 65.205 25.9461 62.4701C23.2112 59.7352 21.6748 56.0259 21.6748 52.1582Z" stroke="#6C5CE7" stroke-width="8" stroke-linecap="round" stroke-linejoin="round"/>
</svg>
