<svg width="101" height="101" viewBox="0 0 101 101" fill="none" xmlns="http://www.w3.org/2000/svg">
<g clip-path="url(#clip0_6_224)">
<path d="M70.9076 87.6157V79.2824C70.9076 74.8621 69.1517 70.6229 66.026 67.4973C62.9004 64.3717 58.6612 62.6157 54.2409 62.6157H20.9076C16.4873 62.6157 12.2481 64.3717 9.12249 67.4973C5.99688 70.6229 4.24094 74.8621 4.24094 79.2824V87.6157" stroke="#6C5CE7" stroke-width="8" stroke-linecap="round" stroke-linejoin="round"/>
<path d="M37.5743 45.9491C46.779 45.9491 54.2409 38.4871 54.2409 29.2824C54.2409 20.0776 46.779 12.6157 37.5743 12.6157C28.3695 12.6157 20.9076 20.0776 20.9076 29.2824C20.9076 38.4871 28.3695 45.9491 37.5743 45.9491Z" stroke="#6C5CE7" stroke-width="8" stroke-linecap="round" stroke-linejoin="round"/>
<path d="M95.9076 87.6157V79.2823C95.9048 75.5895 94.6757 72.0022 92.4133 69.0837C90.1508 66.1651 86.9831 64.0805 83.4076 63.1573" stroke="#6C5CE7" stroke-width="8" stroke-linecap="round" stroke-linejoin="round"/>
<path d="M66.7409 13.1573C70.326 14.0753 73.5036 16.1603 75.7728 19.0836C78.0419 22.007 79.2736 25.6025 79.2736 29.3032C79.2736 33.0039 78.0419 36.5993 75.7728 39.5227C73.5036 42.4461 70.326 44.5311 66.7409 45.449" stroke="#6C5CE7" stroke-width="8" stroke-linecap="round" stroke-linejoin="round"/>
</g>
<defs>
<clipPath id="clip0_6_224">
<rect width="100" height="100" fill="white" transform="translate(0.0742645 0.115723)"/>
</clipPath>
</defs>
</svg>
