<svg width="25" height="25" viewBox="0 0 25 25" fill="none" xmlns="http://www.w3.org/2000/svg">
<g clip-path="url(#clip0_1_39)">
<path d="M16.8754 22.727V18.857C16.9129 18.3802 16.8485 17.9008 16.6864 17.4508C16.5243 17.0008 16.2683 16.5904 15.9354 16.247C19.0754 15.897 22.3754 14.707 22.3754 9.24699C22.3751 7.85082 21.8381 6.50819 20.8754 5.49699C21.3313 4.27549 21.299 2.92534 20.7854 1.72699C20.7854 1.72699 19.6054 1.37699 16.8754 3.20699C14.5834 2.58581 12.1674 2.58581 9.8754 3.20699C7.1454 1.37699 5.9654 1.72699 5.9654 1.72699C5.45177 2.92534 5.41954 4.27549 5.8754 5.49699C4.90552 6.51569 4.36792 7.87045 4.3754 9.27699C4.3754 14.697 7.6754 15.887 10.8154 16.277C10.4864 16.617 10.2327 17.0224 10.0707 17.4669C9.90875 17.9114 9.8422 18.3851 9.8754 18.857V22.727M9.8754 19.727C4.8754 21.227 4.8754 17.227 2.8754 16.727L9.8754 19.727Z" stroke="#636E72" stroke-width="2" stroke-linecap="round" stroke-linejoin="round"/>
</g>
<defs>
<clipPath id="clip0_1_39">
<rect width="24" height="24" fill="white" transform="translate(0.875397 0.72699)"/>
</clipPath>
</defs>
</svg>
