<svg width="25" height="25" viewBox="0 0 25 25" fill="none" xmlns="http://www.w3.org/2000/svg">
<path d="M16.8754 8.72699C18.4667 8.72699 19.9928 9.35913 21.118 10.4843C22.2432 11.6096 22.8754 13.1357 22.8754 14.727V21.727H18.8754V14.727C18.8754 14.1966 18.6647 13.6878 18.2896 13.3128C17.9145 12.9377 17.4058 12.727 16.8754 12.727C16.3449 12.727 15.8362 12.9377 15.4612 13.3128C15.0861 13.6878 14.8754 14.1966 14.8754 14.727V21.727H10.8754V14.727C10.8754 13.1357 11.5075 11.6096 12.6327 10.4843C13.7579 9.35913 15.2841 8.72699 16.8754 8.72699V8.72699Z" stroke="#636E72" stroke-width="2" stroke-linecap="round" stroke-linejoin="round"/>
<path d="M6.87537 9.72699H2.87537V21.727H6.87537V9.72699Z" stroke="#636E72" stroke-width="2" stroke-linecap="round" stroke-linejoin="round"/>
<path d="M4.87537 6.72699C5.97994 6.72699 6.87537 5.83156 6.87537 4.72699C6.87537 3.62242 5.97994 2.72699 4.87537 2.72699C3.7708 2.72699 2.87537 3.62242 2.87537 4.72699C2.87537 5.83156 3.7708 6.72699 4.87537 6.72699Z" stroke="#636E72" stroke-width="2" stroke-linecap="round" stroke-linejoin="round"/>
</svg>
