<svg width="101" height="101" viewBox="0 0 101 101" fill="none" xmlns="http://www.w3.org/2000/svg">
<g clip-path="url(#clip0_6_205)">
<path d="M37.6902 91.8078C39.9913 91.8078 41.8568 89.9423 41.8568 87.6412C41.8568 85.34 39.9913 83.4745 37.6902 83.4745C35.389 83.4745 33.5235 85.34 33.5235 87.6412C33.5235 89.9423 35.389 91.8078 37.6902 91.8078Z" stroke="#6C5CE7" stroke-width="8" stroke-linecap="round" stroke-linejoin="round"/>
<path d="M83.5235 91.8078C85.8247 91.8078 87.6902 89.9423 87.6902 87.6412C87.6902 85.34 85.8247 83.4745 83.5235 83.4745C81.2224 83.4745 79.3569 85.34 79.3569 87.6412C79.3569 89.9423 81.2224 91.8078 83.5235 91.8078Z" stroke="#6C5CE7" stroke-width="8" stroke-linecap="round" stroke-linejoin="round"/>
<path d="M4.35687 4.30774H21.0235L32.1902 60.0994C32.5712 62.0177 33.6148 63.7409 35.1383 64.9673C36.6618 66.1937 38.5681 66.8452 40.5235 66.8077H81.0235C82.979 66.8452 84.8853 66.1937 86.4088 64.9673C87.9323 63.7409 88.9758 62.0177 89.3569 60.0994L96.0235 25.1411H25.1902" stroke="#6C5CE7" stroke-width="8" stroke-linecap="round" stroke-linejoin="round"/>
</g>
<defs>
<clipPath id="clip0_6_205">
<rect width="100" height="100" fill="white" transform="translate(0.190186 0.141113)"/>
</clipPath>
</defs>
</svg>
