<svg width="25" height="25" viewBox="0 0 25 25" fill="none" xmlns="http://www.w3.org/2000/svg">
<g clip-path="url(#clip0_67_15)">
<path d="M15.4049 5.72324C16.3817 5.9138 17.2793 6.39149 17.983 7.09517C18.6867 7.79885 19.1644 8.6965 19.3549 9.67324L15.4049 5.72324ZM15.4049 1.72324C17.4342 1.94867 19.3265 2.85741 20.7712 4.30024C22.2158 5.74308 23.127 7.63425 23.3549 9.66324L15.4049 1.72324ZM22.3549 17.6432V20.6432C22.3561 20.9217 22.299 21.1974 22.1875 21.4526C22.0759 21.7078 21.9122 21.9368 21.707 22.1251C21.5018 22.3134 21.2595 22.4567 20.9957 22.5459C20.7319 22.6352 20.4523 22.6683 20.1749 22.6432C17.0978 22.3089 14.1419 21.2574 11.5449 19.5732C9.12877 18.0379 7.08028 15.9894 5.54494 13.5732C3.85492 10.9644 2.80319 7.99423 2.47494 4.90324C2.44995 4.6267 2.48282 4.348 2.57144 4.08486C2.66007 3.82172 2.80251 3.57993 2.98971 3.37486C3.17691 3.16979 3.40475 3.00595 3.65874 2.89376C3.91272 2.78157 4.18728 2.7235 4.46494 2.72324H7.46494C7.95025 2.71846 8.42074 2.89031 8.78871 3.20677C9.15668 3.52322 9.39702 3.96268 9.46494 4.44324C9.59157 5.4033 9.82639 6.34596 10.1649 7.25324C10.2995 7.61116 10.3286 8.00015 10.2489 8.37412C10.1691 8.74808 9.98381 9.09135 9.71494 9.36324L8.44494 10.6332C9.8685 13.1368 11.9414 15.2097 14.4449 16.6332L15.7149 15.3632C15.9868 15.0944 16.3301 14.9091 16.7041 14.8293C17.078 14.7496 17.467 14.7787 17.8249 14.9132C18.7322 15.2518 19.6749 15.4866 20.6349 15.6132C21.1207 15.6818 21.5643 15.9264 21.8815 16.3007C22.1986 16.675 22.3671 17.1528 22.3549 17.6432Z" stroke="#636E72" stroke-width="2" stroke-linecap="round" stroke-linejoin="round"/>
</g>
<defs>
<clipPath id="clip0_67_15">
<rect width="24" height="24" fill="white" transform="translate(0.35495 0.723236)"/>
</clipPath>
</defs>
</svg>
